#!OML:ASF E:\Mandelcareful walks\Project 1\Capture day 1\Session 1\Subject1.ASF
:FULLY-SPECIFIED
:DEGREES
2248
root 1.58282 15.2099 4.61956 61.1995 259.886 -54.6047
lowerback 54.0569 -1.52721 2.80106
upperback 5.35908 -0.748735 5.58261
thorax -15.2755 -1.12827 5.60503
lowerneck -20.0659 -15.1433 -15.3922
upperneck 11.9436 -20.696 21.1927
head 11.235 -8.49102 6.26
rclavicle 1.43125e-014 -6.04305e-014
rhumerus -12.2466 -11.162 -67.9187
rradius 61.0381
rwrist -22.3208
rhand -15.3044 -25.526
rfingers 7.12502
rthumb 10.8712 -55.2246
lclavicle 1.43125e-014 -6.04305e-014
lhumerus -11.8192 -27.4648 84.4028
lradius 71.0855
lwrist 25.8631
lhand -27.6551 -12.2481
lfingers 7.12502
lthumb -1.0528 17.729
rfemur -61.0147 -35.1835 27.5308
rtibia 58.6196
rfoot -15.3658 -22.3553
rtoes 17.8164
lfemur -23.6077 12.3431 -23.3915
ltibia 61.0054
lfoot -35.1558 3.26118
ltoes -1.78695
2249
root 1.48046 15.1892 4.58172 57.8107 259.026 -51.3152
lowerback 53.979 -1.40374 1.38634
upperback 5.20273 -1.19264 6.87452
thorax -15.4729 -1.26355 7.9894
lowerneck -20.0876 -14.638 -17.089
upperneck 12.7298 -19.4818 20.6364
head 11.3763 -8.0297 6.63809
rclavicle -2.22639e-014 -4.45278e-014
rhumerus -11.3057 -8.39598 -66.9924
rradius 60.4995
rwrist -22.4761
rhand -15.1199 -25.2288
rfingers 7.12502
rthumb 11.0491 -54.9179
lclavicle -2.22639e-014 -4.45278e-014
lhumerus -13.0995 -24.1069 85.8891
lradius 71.1374
lwrist 25.6703
lhand -28.0816 -12.3368
lfingers 7.12502
lthumb -1.4647 17.6379
rfemur -61.2069 -35.1485 27.5437
rtibia 59.4646
rfoot -17.3267 -22.105
rtoes 19.9942
lfemur -23.3214 12.9073 -23.5184
ltibia 61.3761
lfoot -35.0818 3.90366
ltoes -3.93017
2250
root 1.37453 15.1396 4.56225 57.5956 257.948 -51.2278
lowerback 53.5041 -1.83252 2.58264
upperback 5.21998 -1.16454 6.09381
thorax -15.3592 -1.28771 6.49089
lowerneck -19.9564 -15.0909 -15.9141
upperneck 12.3748 -20.4777 20.8143
head 11.3254 -8.42658 6.27141
rclavicle 7.95139e-015 -1.43125e-014
rhumerus -12.1147 -11.0128 -67.3841
rradius 60.4699
rwrist -22.0557
rhand -15.1901 -25.2289
rfingers 7.12502
rthumb 10.9814 -54.9216
lclavicle 7.95139e-015 -1.43125e-014
lhumerus -12.4936 -26.2356 85.0873
lradius 71.0261
lwrist 26.3153
lhand -28.4177 -12.3401
lfingers 7.12502
lthumb -1.78936 17.6322
rfemur -61.6507 -35.6642 26.891
rtibia 60.5576
rfoot -18.3461 -21.1665
rtoes 21.1141
lfemur -22.8675 13.0563 -24.3276
ltibia 61.7596
lfoot -35.1624 4.5363
ltoes -4.72225
2251
root 1.26351 15.0815 4.53647 55.5302 256.894 -49.3123
lowerback 53.1356 -2.08112 3.12055
upperback 5.26141 -1.23083 5.85204
thorax -15.243 -1.33813 5.97951
lowerneck -20.2065 -15.3403 -15.5469
upperneck 12.4302 -20.9317 20.8377
head 11.4431 -8.58871 6.10027
rclavicle 1.74931e-014 2.70347e-014
rhumerus -12.2981 -11.9254 -67.4885
rradius 60.4466
rwrist -22.0311
rhand -15.6539 -25.5664
rfingers 7.12502
rthumb 10.5341 -55.2825
lclavicle 1.74931e-014 2.70347e-014
lhumerus -12.3786 -26.7359 84.7529
lradius 70.9933
lwrist 26.2152
lhand -28.1207 -12.3783
lfingers 7.12502
lthumb -1.50247 17.5961
rfemur -62.3359 -36.0525 26.8981
rtibia 61.6153
rfoot -17.1555 -21.0377
rtoes 15.6792
lfemur -22.2203 13.7313 -24.7829
ltibia 62.1567
lfoot -35.3702 4.78992
ltoes -5.23925
2252
root 1.14145 15.0556 4.50311 52.0699 255.979 -46.0125
lowerback 52.8166 -2.26777 3.47577
upperback 5.24364 -1.26655 5.98445
thorax -15.2156 -1.37431 5.97545
lowerneck -19.9648 -15.3199 -15.6592
upperneck 12.3592 -20.8404 20.6611
head 11.3389 -8.58381 6.0856
rclavicle 0 -1.27222e-014
rhumerus -12.3301 -11.7607 -67.2103
rradius 60.5023
rwrist -22.463
rhand -16.1688 -26.1121
rfingers 7.12502
rthumb 10.0373 -55.8527
lclavicle 0 -1.27222e-014
lhumerus -12.7539 -26.1676 84.8769
lradius 70.9516
lwrist 24.9474
lhand -26.8349 -11.884
lfingers 7.12502
lthumb -0.260658 18.0956
rfemur -62.4435 -36.0553 26.9552
rtibia 62.596
rfoot -17.8691 -20.5076
rtoes 13.5662
lfemur -21.5638 14.69 -24.7508
ltibia 62.5734
lfoot -35.4737 4.92829
ltoes -6.25004
2253
root 1.01957 15.0459 4.47207 50.1002 255.155 -44.0252
lowerback 52.2564 -2.66146 4.05104
upperback 5.17233 -1.43349 6.03785
thorax -15.2017 -1.46178 5.83394
lowerneck -19.6516 -15.3015 -15.6287
upperneck 12.198 -20.8003 20.5348
head 11.1918 -8.60032 6.05686
rclavicle -1.59028e-014 4.13472e-014
rhumerus -12.2199 -11.8435 -67.0151
rradius 60.2037
rwrist -22.8397
rhand -16.2611 -26.4782
rfingers 7.12502
rthumb 9.94827 -56.2231
lclavicle -1.59028e-014 4.13472e-014
lhumerus -13.3222 -26.3166 85.1245
lradius 71.149
lwrist 25.9235
lhand -27.3569 -12.2587
lfingers 7.12502
lthumb -0.764816 17.7196
rfemur -62.5743 -36.1216 26.7519
rtibia 63.4798
rfoot -20.0427 -19.8597
rtoes 15.2643
lfemur -21.2225 15.2923 -24.899
ltibia 62.9592
lfoot -35.3315 5.28465
ltoes -7.70666
2254
root 0.8935 14.9959 4.43567 48.2957 254.103 -42.218
lowerback 51.6659 -2.91714 4.53927
upperback 5.18902 -1.54036 5.88534
thorax -15.0796 -1.52251 5.45875
lowerneck -19.5495 -15.4089 -15.2623
upperneck 12.0991 -21.0756 20.5994
head 11.1597 -8.71153 5.96054
rclavicle -5.725e-014 2.06736e-014
rhumerus -11.9898 -12.5335 -67.1009
rradius 59.5459
rwrist -22.7053
rhand -15.7928 -26.6175
rfingers 7.12502
rthumb 10.4 -56.3403
lclavicle -5.725e-014 2.06736e-014
lhumerus -13.5512 -26.6001 84.9242
lradius 71.3051
lwrist 25.6881
lhand -27.2725 -11.88
lfingers 7.12502
lthumb -0.683249 18.0986
rfemur -63.2407 -36.4612 27.4507
rtibia 64.1907
rfoot -19.6111 -21.1784
rtoes 8.68161
lfemur -20.8349 16.1063 -25.1198
ltibia 63.5065
lfoot -35.292 5.50275
ltoes -8.86148
2255
root 0.758978 14.9608 4.39676 45.2632 252.843 -39.3661
lowerback 51.341 -2.94082 4.89896
upperback 5.22165 -1.42987 5.84382
thorax -14.9923 -1.49917 5.1766
lowerneck -19.2951 -15.5501 -15.1413
upperneck 11.9958 -21.3565 20.6998
head 11.1325 -8.84201 5.91992
rclavicle 6.67916e-014 -4.77083e-014
rhumerus -11.9724 -12.9723 -66.997
rradius 59.2157
rwrist -22.5722
rhand -15.696 -26.998
rfingers 7.12502
rthumb 10.4935 -56.7161
lclavicle 6.67916e-014 -4.77083e-014
lhumerus -13.909 -27.0201 84.9721
lradius 71.4128
lwrist 25.511
lhand -27.9556 -12.132
lfingers 7.12502
lthumb -1.34302 17.8435
rfemur -63.1562 -36.171 27.5733
rtibia 64.8582
rfoot -19.9126 -21.2258
rtoes 8.04206
lfemur -19.9874 17.3323 -25.0226
ltibia 64.0301
lfoot -35.3203 5.17213
ltoes -8.71129
2256
root 0.638068 14.9263 4.34875 41.2832 251.383 -35.0688
lowerback 50.7213 -2.59934 4.70694
upperback 5.31387 -1.14381 6.22139
thorax -14.8236 -1.38421 5.52614
lowerneck -19.3709 -15.5209 -15.2641
upperneck 11.976 -21.2539 20.6442
head 11.1239 -8.79979 5.93989
rclavicle 2.70347e-014 -2.8625e-014
rhumerus -11.5143 -12.4814 -66.9013
rradius 58.9297
rwrist -22.8664
rhand -16.211 -27.4674
rfingers 7.12502
rthumb 9.99655 -57.21
lclavicle 2.70347e-014 -2.8625e-014
lhumerus -14.3937 -26.6324 85.324
lradius 71.5169
lwrist 25.5966
lhand -28.9747 -12.6455
lfingers 7.12502
lthumb -2.32723 17.3216
rfemur -63.3401 -34.7634 27.9951
rtibia 65.4738
rfoot -20.0581 -20.9124
rtoes 8.81082
lfemur -19.8004 19.1707 -24.551
ltibia 64.7975
lfoot -34.9121 4.48285
ltoes -9.04891
